<svg xmlns="http://www.w3.org/2000/svg" width="112.259" height="123.333" viewBox="0 0 112.259 123.333">
  <g id="Group_63" data-name="Group 63" transform="translate(-71.953 -6338.22)">
    <g id="Group_62" data-name="Group 62" transform="translate(74.11 6372.644) rotate(-25)">
      <path id="Path_124" data-name="Path 124" d="M80.425,27.033A32.12,32.12,0,0,0,69.455,11.28c-5.663-4.507-12.542-7.057-19.4-8.647C46.45,1.8,42.8,1.21,39.143.732A71.282,71.282,0,0,0,27.657.024C20.865.239,14.034,1.966,8.541,6.363A21.778,21.778,0,0,0,.009,22.584,24.4,24.4,0,0,0,7.775,40.763,31.549,31.549,0,0,0,26.25,48.7c1.944.2,3.9.272,5.85.309q.949,5.618,1.585,11.287c.063.564.881,1.008,1.166.334l2.412-5.707,1.206-2.853a8.053,8.053,0,0,0,.514-1.267c7.336,2.233,14.957,4.461,22.657,3.634,5.856-.629,11.829-3.269,15.716-8.07C81.681,41.025,82.365,33.6,80.425,27.033ZM78.537,42.156c-2.6,5.413-7.866,8.826-13.3,10.28-6.984,1.869-14.327.407-21.154-1.5-1.789-.5-3.568-1.04-5.345-1.582a.549.549,0,0,0-.661.255.648.648,0,0,0-.279.911c-.059-.108-.12.189-.162.29-.082.2-.167.4-.251.595l-.5,1.189-1.055,2.5-1.179,2.79q-.6-4.889-1.432-9.742a.545.545,0,0,0-.833-.4.622.622,0,0,0-.231-.047,47.587,47.587,0,0,1-10.849-1.176,30.269,30.269,0,0,1-8.953-3.825A23.947,23.947,0,0,1,1.587,26.935a19.731,19.731,0,0,1,.57-9.558A20.3,20.3,0,0,1,6.685,9.823,27.428,27.428,0,0,1,23.241,1.707c7.2-.987,14.6-.022,21.715,1.236,6.771,1.2,13.553,3.035,19.6,6.57A32.922,32.922,0,0,1,77.458,22.957C80.361,28.725,81.424,36.139,78.537,42.156Z" transform="translate(0 0.002)" fill="#fff"/>
      <path id="Path_125" data-name="Path 125" d="M9.572.978q-.6,5.978-1.2,11.955l-.037,0-5.6-.005Q3.4,6.787,3.945.635c.074-.85-1.251-.845-1.326,0Q2.07,6.858,1.4,13.069A.721.721,0,0,0,1.3,14Q.7,19.482.005,24.956c-.107.844,1.219.836,1.326,0q.679-5.346,1.265-10.7l5.648.005L7.12,25.493c-.085.848,1.242.842,1.326,0Q9.672,13.236,10.9.978C10.982.13,9.656.136,9.572.978Z" transform="translate(10.651 10.75)" fill="#fff"/>
      <path id="Path_126" data-name="Path 126" d="M9.349,13.061c-1.282,1.433-3.392,3.72-5.53,2.492C2.1,14.567,1.58,12.008,1.4,10.209a13.8,13.8,0,0,1,.332-4.7.724.724,0,0,0,.125.082,6.733,6.733,0,0,0,4.41.712A3.038,3.038,0,0,0,8.826,4.058C9.3,1.417,5.653-.717,3.407.227,2.091.781,1.479,2.242.992,3.487A14.663,14.663,0,0,0,.029,7.951c-.157,2.639.274,6.032,2.2,8.024A4.013,4.013,0,0,0,6.332,17a9.093,9.093,0,0,0,3.955-3C10.854,13.364,9.919,12.424,9.349,13.061ZM4.4,1.327A3.276,3.276,0,0,1,7.112,2.583a1.4,1.4,0,0,1-.831,2.349,5.127,5.127,0,0,1-3.756-.488.648.648,0,0,0-.458-.064c.106-.306.223-.607.352-.9C2.81,2.582,3.3,1.435,4.4,1.327Z" transform="translate(24.186 20.34)" fill="#fff"/>
      <path id="Path_127" data-name="Path 127" d="M4.457.47A154.155,154.155,0,0,0,0,26.208c-.074.85,1.252.845,1.326,0A152.011,152.011,0,0,1,5.736.823.663.663,0,0,0,4.457.47Z" transform="translate(37.007 13.411)" fill="#fff"/>
      <path id="Path_128" data-name="Path 128" d="M4.356.48q-2.174,14.1-4.348,28.2c-.129.835,1.148,1.194,1.278.352L5.635.832C5.763,0,4.486-.362,4.356.48Z" transform="translate(43.314 12.174)" fill="#fff"/>
      <path id="Path_129" data-name="Path 129" d="M9.437,1.632A3.45,3.45,0,0,0,5.627.091,6.046,6.046,0,0,0,2.263,2.336,10.033,10.033,0,0,0,.194,10.608c.546,2.649,2.689,5.241,5.63,5.012,2.812-.219,4.265-2.954,4.748-5.438C11,8,10.965,3.907,9.437,1.632Zm.028,6.945c-.156,1.944-.792,4.616-2.777,5.5-2.171.962-4.292-.93-4.962-2.88a8.456,8.456,0,0,1,.672-6.7C4.116,1.364,8.29.815,9.2,4.807A12.447,12.447,0,0,1,9.465,8.576Z" transform="translate(48.239 25.174)" fill="#fff"/>
      <path id="Path_130" data-name="Path 130" d="M1.322,22.286,5.491.743C5.653-.094,4.345-.306,4.182.533L.013,22.075C-.149,22.912,1.16,23.124,1.322,22.286Z" transform="translate(64.419 17.52)" fill="#fff"/>
      <path id="Path_131" data-name="Path 131" d="M3.467,1.24A.6.6,0,0,0,3.343.777a1.567,1.567,0,0,0-.86-.6A1.636,1.636,0,0,0,.111,1.513a1.832,1.832,0,0,0-.059.194,1.915,1.915,0,0,0,2.64,2.177A1.911,1.911,0,0,0,3.467,1.24Z" transform="translate(62.263 42.362)" fill="#fff"/>
    </g>
    <path id="Path_132" data-name="Path 132" d="M49.805,20.8a5.712,5.712,0,0,0-1.989-4.014,5.008,5.008,0,0,0-4.928-.653A8.634,8.634,0,0,0,38.447,20.6l-.006.015A127.659,127.659,0,0,1,20.266,12.26q-2.24-1.252-4.427-2.594a8.841,8.841,0,0,0,.908-5.4A5.244,5.244,0,0,0,13.723.34,5.463,5.463,0,0,0,9.264.653,6.02,6.02,0,0,0,6.253,4.342,8.443,8.443,0,0,0,6.4,9.358a7.118,7.118,0,0,0-4.435.536,4.06,4.06,0,0,0-1.9,4.375A5.727,5.727,0,0,0,2.251,18.4c1.472.96,3.35.612,4.863-.047A13.975,13.975,0,0,0,11.626,15.1c6.347,3.933,12.818,7.889,20.058,9.942a15.661,15.661,0,0,1,5.107,1.994,14.674,14.674,0,0,0,.065,5.232A5.863,5.863,0,0,0,39.1,36.1c1.513,1,3.41.572,4.932-.166a4.306,4.306,0,0,0,2.792-3.813A6.62,6.62,0,0,0,44.532,27.7C47.444,26.65,50.056,24.088,49.805,20.8Zm-6.44,6.122a.548.548,0,0,0-.24.907c1.278,1.247,2.936,2.854,2.57,4.835-.322,1.746-2.629,2.81-4.224,2.934-1.838.143-2.911-1.271-3.385-2.875a12.493,12.493,0,0,1-.232-5.506.463.463,0,0,0,.1-.612.587.587,0,0,0-.7-.553,13.656,13.656,0,0,0-4.007-1.7c-1.806-.513-3.594-1.043-5.346-1.725A72.467,72.467,0,0,1,17.6,17.46c-1.878-1.1-3.731-2.248-5.582-3.4a.5.5,0,0,0-.823-.108,13.429,13.429,0,0,1-4.473,3.39C5.14,18.06,3.1,18.3,2,16.651c-.88-1.326-1.465-3.772-.36-5.12,1.293-1.577,3.656-1.256,5.423-.991a.552.552,0,0,0,.613-.8C6.592,7.186,6.713,3.6,9.241,1.922a4.646,4.646,0,0,1,3.519-.75,3.916,3.916,0,0,1,2.8,2.811,7.4,7.4,0,0,1-.72,5.267.561.561,0,0,0-.129,1,129.417,129.417,0,0,0,18.2,9.356q2.727,1.14,5.506,2.153a.465.465,0,0,0,.635-.343.462.462,0,0,0,.336-.268,8.284,8.284,0,0,1,3.063-3.611,4.246,4.246,0,0,1,4.378-.135A4.454,4.454,0,0,1,48.7,20.591,5.023,5.023,0,0,1,47.531,24.4,7.808,7.808,0,0,1,43.365,26.922Z" transform="translate(125.936 6441.038) rotate(-56)" fill="#fff"/>
    <g id="Group_92" data-name="Group 92" transform="matrix(0.999, 0.035, -0.035, 0.999, -2536.787, 4507.039)">
      <g id="Group_89" data-name="Group 89" transform="translate(2675.019 1823.042)">
        <path id="Path_167" data-name="Path 167" d="M2723.127,1843.334a.63.63,0,0,0-.161-.612,14.023,14.023,0,0,1-3.678-7.891.734.734,0,0,0-.029-.131,4.122,4.122,0,0,0,1.715-3.305c0-3.065-2.734-4.911-5.317-5.842a43.893,43.893,0,0,0-9.721-2.18,48.55,48.55,0,0,0-22.59,2.726.669.669,0,0,0-.4.378c-2.187.853-4.46,2.326-4.06,4.966a3.517,3.517,0,0,0,.439,1.243.783.783,0,0,0-.028.141,16.18,16.18,0,0,1-3.663,8.768.656.656,0,0,0-.41,1.119,36.619,36.619,0,0,0,47.983,1.587A.576.576,0,0,0,2723.127,1843.334Zm-3.489-3.034a44.855,44.855,0,0,1-31.872,1.035,42.825,42.825,0,0,1-8.221-3.846,17.818,17.818,0,0,0,.937-3.494,16.056,16.056,0,0,0,5.2,2.376,53.117,53.117,0,0,0,9.952,1.862,56.233,56.233,0,0,0,10.194.295,36.144,36.144,0,0,0,9.759-1.965,17.813,17.813,0,0,0,2.461-1.066A15.66,15.66,0,0,0,2719.638,1840.3Zm-27.056-6.955a.671.671,0,0,0,1.311-.177,5.112,5.112,0,0,1,10.092-.369.674.674,0,0,0,1.22.159,5.289,5.289,0,0,1,10.117,2.315s0,.006,0,.009a31.7,31.7,0,0,1-6.124,1.53,55.491,55.491,0,0,1-17.854-.515,26.873,26.873,0,0,1-9.322-2.918,4.864,4.864,0,0,1-1.127-.9,9.568,9.568,0,0,1,6.57-2.706A5.615,5.615,0,0,1,2692.582,1833.344Zm-12.016-3.658c.833-1.43,2.583-1.928,4.061-2.379a.623.623,0,0,0,.427-.4,47.466,47.466,0,0,1,16.1-2.522,46.867,46.867,0,0,1,8.749.974q2.2.459,4.352,1.131a10.851,10.851,0,0,1,3.77,1.8,4.085,4.085,0,0,1,1.608,3.349,3.764,3.764,0,0,1-2.352,2.778c-.211.109-.426.213-.643.314a6.593,6.593,0,0,0-11.838-3.625,6.372,6.372,0,0,0-11.748.275,7.233,7.233,0,0,0-5.123-2.9,10.463,10.463,0,0,0-7.675,2.8A2.226,2.226,0,0,1,2680.566,1829.687Zm4.723,18.195a35.645,35.645,0,0,1-8.52-5.574,17.812,17.812,0,0,0,2.248-3.579,46.238,46.238,0,0,0,32.619,5.453,44.294,44.294,0,0,0,8.673-2.728,15.538,15.538,0,0,0,1.652,2.144A35.5,35.5,0,0,1,2685.29,1847.882Z" transform="translate(-2675.019 -1823.042)" fill="#fff"/>
      </g>
      <g id="Group_90" data-name="Group 90" transform="translate(2709.17 1832.507)">
        <path id="Path_168" data-name="Path 168" d="M2880.667,1882.036a1.091,1.091,0,0,0,1.038-1.131,1.113,1.113,0,0,0-.869-1.137.683.683,0,0,0-.344,0,1.107,1.107,0,0,0-.871,1.142A1.091,1.091,0,0,0,2880.667,1882.036Z" transform="translate(-2879.621 -1879.745)" fill="#fff"/>
      </g>
      <g id="Group_91" data-name="Group 91" transform="translate(2698.924 1831.085)">
        <path id="Path_169" data-name="Path 169" d="M2819.024,1873.629a1.266,1.266,0,0,0,1.248-2.066.653.653,0,0,0-.591-.18.646.646,0,0,0-.6-.13A1.274,1.274,0,0,0,2819.024,1873.629Z" transform="translate(-2818.239 -1871.227)" fill="#fff"/>
      </g>
    </g>
  </g>
</svg>
