<svg xmlns="http://www.w3.org/2000/svg" width="100.75" height="89" viewBox="0 0 100.75 89">
  <g id="icon_4" data-name="icon 4" transform="translate(-4868.152 -141.567)">
    <path id="Path_11" data-name="Path 11" d="M4882.374,230.038a19.146,19.146,0,0,1-11.933-8.686,19.774,19.774,0,0,1-2.258-10.937c.418-8.667,4.828-12.723,7.8-19.1,7.91-16.961-4.958-27.587,3.486-40.093,3.751-5.554,10.579-9.865,17.093-9.65,7.435.245,8.184,5.707,17.65,10.053,11.1,5.095,20.626-.566,32.339,5.388,13.917,7.073,20.826,31.717,12.9,49.218-.814,1.8-7.072,16.5-18.384,17.371-10,.774-12.778-7.317-23.127-5.82-7.21,1.043-7.076,5.456-19.767,10C4892.375,229.864,4887.882,231.43,4882.374,230.038Z" transform="translate(0 0)" fill="#fff"/>
    <g id="Group_14" data-name="Group 14" transform="translate(4876.048 155.768)">
      <g id="Group_11" data-name="Group 11">
        <path id="Path_12" data-name="Path 12" d="M4933.223,203.735v-2.158h-20.138v2.158c0,2.383,1.932,4.315,4.315,5.034h11.507C4931.291,208.05,4933.223,206.118,4933.223,203.735Z" transform="translate(-4910.209 -201.577)" fill="none" stroke="#13294b" stroke-linecap="round" stroke-linejoin="round" stroke-width="1.5"/>
        <line id="Line_1" data-name="Line 1" x2="37.398" transform="translate(14.384 12.946)" fill="none" stroke="#13294b" stroke-linecap="round" stroke-linejoin="round" stroke-width="1.5"/>
        <path id="Path_13" data-name="Path 13" d="M4926.257,264.207h-25.172v-8.63h14.384" transform="translate(-4901.085 -242.631)" fill="none" stroke="#13294b" stroke-linecap="round" stroke-linejoin="round" stroke-width="1.5"/>
        <path id="Path_14" data-name="Path 14" d="M5086.1,255.577h12.945v8.63h-35.959" transform="translate(-5024.25 -242.631)" fill="none" stroke="#13294b" stroke-linecap="round" stroke-linejoin="round" stroke-width="1.5"/>
        <path id="Path_15" data-name="Path 15" d="M4957.43,435.084h-50.344V423.577h5.753" transform="translate(-4905.647 -370.356)" fill="none" stroke="#13294b" stroke-linecap="round" stroke-linejoin="round" stroke-width="1.5"/>
        <line id="Line_2" data-name="Line 2" x2="4.315" transform="translate(43.152 53.221)" fill="none" stroke="#13294b" stroke-linecap="round" stroke-linejoin="round" stroke-width="1.5"/>
        <line id="Line_3" data-name="Line 3" x2="8.63" transform="translate(23.014 53.221)" fill="none" stroke="#13294b" stroke-linecap="round" stroke-linejoin="round" stroke-width="1.5"/>
        <path id="Path_16" data-name="Path 16" d="M4931.086,237.331v-5.754h11.507v5.754" transform="translate(-4923.895 -224.385)" fill="none" stroke="#13294b" stroke-linecap="round" stroke-linejoin="round" stroke-width="1.5"/>
        <line id="Line_4" data-name="Line 4" transform="translate(37.398 50.344)" fill="none" stroke="#13294b" stroke-linecap="round" stroke-linejoin="round" stroke-width="1.5"/>
        <path id="Path_17" data-name="Path 17" d="M4931.086,291.577v30.206a5.753,5.753,0,1,0,11.507,0V291.577" transform="translate(-4923.895 -270.001)" fill="none" stroke="#13294b" stroke-linecap="round" stroke-linejoin="round" stroke-width="1.5"/>
        <path id="Path_18" data-name="Path 18" d="M5137.224,203.735v-2.158h-20.137v2.158c0,2.383,1.932,4.315,4.315,5.034h11.507C5135.292,208.05,5137.224,206.118,5137.224,203.735Z" transform="translate(-5065.304 -201.577)" fill="none" stroke="#13294b" stroke-linecap="round" stroke-linejoin="round" stroke-width="1.5"/>
        <path id="Path_19" data-name="Path 19" d="M5135.086,237.331v-5.754h11.507v5.754" transform="translate(-5078.989 -224.385)" fill="none" stroke="#13294b" stroke-linecap="round" stroke-linejoin="round" stroke-width="1.5"/>
        <path id="Path_20" data-name="Path 20" d="M5035.224,203.735v-2.158h-20.138v2.158c0,2.383,1.933,4.315,4.315,5.034h11.507C5033.292,208.05,5035.224,206.118,5035.224,203.735Z" transform="translate(-4987.756 -201.577)" fill="none" stroke="#13294b" stroke-linecap="round" stroke-linejoin="round" stroke-width="1.5"/>
        <path id="Path_21" data-name="Path 21" d="M5033.086,237.331v-5.754h11.507v5.754" transform="translate(-5001.441 -224.385)" fill="none" stroke="#13294b" stroke-linecap="round" stroke-linejoin="round" stroke-width="1.5"/>
        <line id="Line_5" data-name="Line 5" y1="4.315" transform="translate(67.605 21.576)" fill="none" stroke="#13294b" stroke-linecap="round" stroke-linejoin="round" stroke-width="1.5"/>
        <line id="Line_6" data-name="Line 6" y2="8.63" transform="translate(56.097 21.576)" fill="none" stroke="#13294b" stroke-linecap="round" stroke-linejoin="round" stroke-width="1.5"/>
        <line id="Line_7" data-name="Line 7" x2="11.507" transform="translate(7.192 30.206)" fill="none" stroke="#13294b" stroke-linecap="round" stroke-linejoin="round" stroke-width="1.5"/>
        <path id="Path_22" data-name="Path 22" d="M5033.086,291.577v30.206a5.754,5.754,0,0,0,11.507,0V291.577" transform="translate(-5001.441 -270.001)" fill="none" stroke="#13294b" stroke-linecap="round" stroke-linejoin="round" stroke-width="1.5"/>
        <line id="Line_8" data-name="Line 8" x2="11.507" transform="translate(31.645 43.152)" fill="none" stroke="#13294b" stroke-linecap="round" stroke-linejoin="round" stroke-width="1.5"/>
        <line id="Line_9" data-name="Line 9" transform="translate(12.946 50.344)" fill="none" stroke="#13294b" stroke-linecap="round" stroke-linejoin="round" stroke-width="1.5"/>
        <line id="Line_10" data-name="Line 10" transform="translate(12.946 43.152)" fill="none" stroke="#13294b" stroke-linecap="round" stroke-linejoin="round" stroke-width="1.5"/>
        <line id="Line_11" data-name="Line 11" transform="translate(12.946 35.96)" fill="none" stroke="#13294b" stroke-linecap="round" stroke-linejoin="round" stroke-width="1.5"/>
      </g>
      <g id="Group_13" data-name="Group 13" transform="translate(51.829 30.206)">
        <circle id="Ellipse_6" data-name="Ellipse 6" cx="20.138" cy="20.138" r="20.138" fill="#ffde59" stroke="#13294b" stroke-linecap="round" stroke-linejoin="round" stroke-width="1.5"/>
        <g id="Group_12" data-name="Group 12" transform="translate(4.755 7.192)">
          <path id="Path_23" data-name="Path 23" d="M5137.919,397.9c1.134,1.8,2.8,2.392,4.315,1.438s1.134-3.952,0-5.754-2.8-2.392-4.315-1.438S5136.786,396.1,5137.919,397.9Z" transform="translate(-5136.921 -383.513)" fill="#fff" stroke="#13294b" stroke-linecap="round" stroke-linejoin="round" stroke-width="1.5"/>
          <path id="Path_24" data-name="Path 24" d="M5244.234,397.9c-1.133,1.8-2.8,2.392-4.315,1.438s-1.134-3.952,0-5.754,2.8-2.392,4.315-1.438S5245.368,396.1,5244.234,397.9Z" transform="translate(-5214.468 -383.513)" fill="#fff" stroke="#13294b" stroke-linecap="round" stroke-linejoin="round" stroke-width="1.5"/>
          <path id="Path_25" data-name="Path 25" d="M5169.154,413.961c-2.154,0-2.876,1.438-5.753,1.438-1.5,0-4.315-.506-4.315-2.877,0-4.244,4.068-3.659,5.744-5.754,1.676-2.334.193-7.083,4.315-7.192" transform="translate(-5153.772 -389.508)" fill="#fff" stroke="#13294b" stroke-linecap="round" stroke-linejoin="round" stroke-width="1.5"/>
          <path id="Path_26" data-name="Path 26" d="M5201.086,413.961c2.155,0,2.877,1.438,5.754,1.438,1.5,0,4.315-.506,4.315-2.877,0-4.244-4.068-3.659-5.744-5.754-1.675-2.334-.193-7.083-4.315-7.192" transform="translate(-5185.704 -389.508)" fill="#fff" stroke="#13294b" stroke-linecap="round" stroke-linejoin="round" stroke-width="1.5"/>
          <ellipse id="Ellipse_4" data-name="Ellipse 4" cx="2.877" cy="4.315" rx="2.877" ry="4.315" transform="translate(18.259)" fill="#fff" stroke="#13294b" stroke-linecap="round" stroke-linejoin="round" stroke-width="1.5"/>
          <ellipse id="Ellipse_5" data-name="Ellipse 5" cx="2.877" cy="4.315" rx="2.877" ry="4.315" transform="translate(6.752)" fill="#fff" stroke="#13294b" stroke-linecap="round" stroke-linejoin="round" stroke-width="1.5"/>
        </g>
      </g>
    </g>
  </g>
</svg>
