<svg xmlns="http://www.w3.org/2000/svg" width="101.501" height="90.964" viewBox="0 0 101.501 90.964">
  <g id="icon_1" data-name="icon 1" transform="translate(-5857.05 141.552)">
    <path id="Path_45" data-name="Path 45" d="M5879.121-51.129a19.517,19.517,0,0,1-12.165-8.877c-.543-.945-2.611-4.763-2.3-11.179.427-8.858,4.922-13,7.952-19.518,8.065-17.335-5.054-28.2,3.555-40.978,3.823-5.677,10.784-10.083,17.425-9.863,7.579.25,8.342,5.833,17.992,10.275,11.312,5.207,21.027-.578,32.968,5.507,14.187,7.229,21.23,32.417,13.151,50.3-.83,1.835-7.209,16.86-18.74,17.754-10.2.791-13.025-7.478-23.577-5.948-7.349,1.066-7.213,5.576-20.15,10.222C5889.316-51.307,5884.735-49.706,5879.121-51.129Z" transform="translate(-5.065)" fill="#fff"/>
    <g id="Group_31" data-name="Group 31" transform="translate(5857.8 -137.808)">
      <g id="Group_30" data-name="Group 30" transform="translate(0 0)">
        <g id="Group_27" data-name="Group 27">
          <g id="Group_26" data-name="Group 26">
            <g id="Group_25" data-name="Group 25" transform="translate(18.541 61.826)">
              <path id="Path_46" data-name="Path 46" d="M5937.532,129.985h-1.546c-2.562,0-6.186,0-6.186-4.639,0,0,1.5-6.281,3.093-12.371" transform="translate(-5929.8 -112.975)" fill="none" stroke="#13294b" stroke-linecap="round" stroke-linejoin="round" stroke-width="1.5"/>
              <rect id="Rectangle_30" data-name="Rectangle 30" width="7.732" height="9.278" rx="3.866" transform="translate(7.732 12.371)" fill="#fff" stroke="#13294b" stroke-linecap="round" stroke-linejoin="round" stroke-width="1.5"/>
              <path id="Path_47" data-name="Path 47" d="M6043.8,129.985h1.546c2.563,0,6.186,0,6.186-4.639,0,0-1.39-6-3.093-12.371" transform="translate(-6014.418 -112.975)" fill="none" stroke="#13294b" stroke-linecap="round" stroke-linejoin="round" stroke-width="1.5"/>
              <rect id="Rectangle_31" data-name="Rectangle 31" width="7.732" height="9.278" rx="3.866" transform="translate(21.65 12.371)" fill="#fff" stroke="#13294b" stroke-linecap="round" stroke-linejoin="round" stroke-width="1.5"/>
            </g>
            <path id="Path_48" data-name="Path 48" d="M5935.8-63.561V-79.025" transform="translate(-5915.706 91.396)" fill="none" stroke="#13294b" stroke-linecap="round" stroke-linejoin="round" stroke-width="1.5"/>
            <path id="Path_49" data-name="Path 49" d="M5925.779-19.025c-4.639,0-4.639,6.186,0,6.186" transform="translate(-5905.684 46.85)" fill="none" stroke="#13294b" stroke-linecap="round" stroke-linejoin="round" stroke-width="1.5"/>
            <path id="Path_50" data-name="Path 50" d="M5935.8-53.107v-6.186l4.64-7.732s7.5,3.093,12.371,3.093c5.335,0,12.371-3.093,12.371-3.093l4.639,7.732v6.186" transform="translate(-5915.713 82.482)" fill="none" stroke="#13294b" stroke-linecap="round" stroke-linejoin="round" stroke-width="1.5"/>
            <path id="Path_51" data-name="Path 51" d="M5969.82,4.975V8.068c0,1.465-.772,4.107-3.093,7.732l-4.639,6.186c-.876,1.168-3.179,3.093-4.639,3.093h-9.279c-1.46,0-3.763-1.925-4.639-3.093l-4.64-6.186c-2.319-3.624-3.093-6.267-3.093-7.732V4.975" transform="translate(-5915.713 29.03)" fill="none" stroke="#13294b" stroke-linecap="round" stroke-linejoin="round" stroke-width="1.5"/>
            <path id="Path_52" data-name="Path 52" d="M6067.8-19.025c4.124,0,4.124,6.186,0,6.186" transform="translate(-6013.7 46.85)" fill="none" stroke="#13294b" stroke-linecap="round" stroke-linejoin="round" stroke-width="1.5"/>
            <path id="Path_53" data-name="Path 53" d="M6067.8-79.025v12.371" transform="translate(-6013.699 91.396)" fill="none" stroke="#13294b" stroke-linecap="round" stroke-linejoin="round" stroke-width="1.5"/>
            <path id="Path_54" data-name="Path 54" d="M5885.635,70.975v6.186A4.639,4.639,0,0,1,5881,81.8h-13.917a9.278,9.278,0,0,0-9.279,9.278v4.639" transform="translate(-5857.8 -19.973)" fill="none" stroke="#13294b" stroke-linecap="round" stroke-linejoin="round" stroke-width="1.5"/>
            <path id="Path_55" data-name="Path 55" d="M6103.8,112.975h1.547a9.278,9.278,0,0,1,9.278,9.278v4.639" transform="translate(-6040.43 -51.149)" fill="none" stroke="#13294b" stroke-linecap="round" stroke-linejoin="round" stroke-width="1.5"/>
            <path id="Path_56" data-name="Path 56" d="M6037.8,70.975v6.186a4.639,4.639,0,0,0,4.64,4.639h7.732" transform="translate(-5991.433 -19.965)" fill="none" stroke="#13294b" stroke-linecap="round" stroke-linejoin="round" stroke-width="1.5"/>
            <line id="Line_12" data-name="Line 12" x2="4.639" transform="translate(27.822 26.279)" fill="none" stroke="#13294b" stroke-linecap="round" stroke-linejoin="round" stroke-width="1.5"/>
            <line id="Line_13" data-name="Line 13" x2="4.639" transform="translate(41.733 26.279)" fill="none" stroke="#13294b" stroke-linecap="round" stroke-linejoin="round" stroke-width="1.5"/>
            <path id="Path_57" data-name="Path 57" d="M5992.894-13.025,5989.8-6.84h6.186" transform="translate(-5955.796 42.396)" fill="none" stroke="#13294b" stroke-linecap="round" stroke-linejoin="round" stroke-width="1.5"/>
            <path id="Path_58" data-name="Path 58" d="M5989.8,40.975a7.469,7.469,0,0,0,6.186,0" transform="translate(-5955.795 2.309)" fill="none" stroke="#13294b" stroke-linecap="round" stroke-linejoin="round" stroke-width="1.5"/>
            <path id="Path_59" data-name="Path 59" d="M5952.811-127.025h-3.094c-7.686,0-13.917,4.685-13.917,12.371" transform="translate(-5915.708 127.025)" fill="none" stroke="#13294b" stroke-linecap="round" stroke-linejoin="round" stroke-width="1.5"/>
            <path id="Path_60" data-name="Path 60" d="M6001.8-127.025h3.093c7.687,0,13.917,4.685,13.917,12.371" transform="translate(-5964.708 127.025)" fill="none" stroke="#13294b" stroke-linecap="round" stroke-linejoin="round" stroke-width="1.5"/>
            <path id="Path_61" data-name="Path 61" d="M5947.8,112.975l13.918,10.825,13.917-10.825" transform="translate(-5924.62 -51.148)" fill="none" stroke="#13294b" stroke-linecap="round" stroke-linejoin="round" stroke-width="1.5"/>
          </g>
        </g>
        <g id="Group_29" data-name="Group 29" transform="translate(66.925 27.82)">
          <g id="Group_28" data-name="Group 28" transform="translate(0 0)">
            <path id="Path_62" data-name="Path 62" d="M6118.668,21.761c1.219,1.936,3.01,2.572,4.64,1.546s1.218-4.249,0-6.186-3.01-2.572-4.64-1.546S6117.45,19.824,6118.668,21.761Z" transform="translate(-6117.595 -6.297)" fill="#38b6ff" stroke="#13294b" stroke-linecap="round" stroke-linejoin="round" stroke-width="1.5"/>
            <path id="Path_63" data-name="Path 63" d="M6225.308,21.761c-1.219,1.936-3.01,2.572-4.64,1.546s-1.219-4.249,0-6.186,3.01-2.572,4.64-1.546S6226.526,19.824,6225.308,21.761Z" transform="translate(-6193.306 -6.297)" fill="#38b6ff" stroke="#13294b" stroke-linecap="round" stroke-linejoin="round" stroke-width="1.5"/>
            <path id="Path_64" data-name="Path 64" d="M6150.584,38.439c-2.316,0-3.093,1.546-6.186,1.546-1.607,0-4.639-.544-4.639-3.093,0-4.563,4.374-3.934,6.175-6.186,1.8-2.51.208-7.615,4.639-7.732" transform="translate(-6134.047 -12.15)" fill="#38b6ff" stroke="#13294b" stroke-linecap="round" stroke-linejoin="round" stroke-width="1.5"/>
            <path id="Path_65" data-name="Path 65" d="M6181.76,38.439c2.317,0,3.093,1.546,6.186,1.546,1.608,0,4.639-.544,4.639-3.093,0-4.563-4.374-3.934-6.176-6.186-1.8-2.51-.208-7.615-4.639-7.732" transform="translate(-6165.223 -12.15)" fill="#38b6ff" stroke="#13294b" stroke-linecap="round" stroke-linejoin="round" stroke-width="1.5"/>
            <ellipse id="Ellipse_7" data-name="Ellipse 7" cx="3.093" cy="4.639" rx="3.093" ry="4.639" transform="translate(19.63)" fill="#38b6ff" stroke="#13294b" stroke-linecap="round" stroke-linejoin="round" stroke-width="1.5"/>
            <ellipse id="Ellipse_8" data-name="Ellipse 8" cx="3.093" cy="4.639" rx="3.093" ry="4.639" transform="translate(7.259)" fill="#38b6ff" stroke="#13294b" stroke-linecap="round" stroke-linejoin="round" stroke-width="1.5"/>
          </g>
        </g>
      </g>
    </g>
  </g>
</svg>
