<svg xmlns="http://www.w3.org/2000/svg" width="100" height="82.285" viewBox="0 0 100 82.285">
  <g id="icon_3" data-name="icon 3" transform="translate(-5395.006 -163.981)">
    <path id="Path_27" data-name="Path 27" d="M5499.947,224.623c9.986-23.67-20.175-52.719-42.574-59.248a31.846,31.846,0,0,0-20.5.621c-6.838,2.639-12.509,7.61-17.188,13.152-11.692,13.848-14.481,24.4-1.658,39.725a114.792,114.792,0,0,0,15.82,15.077c5.692,4.619,11.778,8.743,17.977,10.768C5468.081,250.026,5492.914,241.292,5499.947,224.623Z" transform="translate(-10.746 0)" fill="#fff"/>
    <g id="Group_17" data-name="Group 17" transform="translate(5395.006 173.039)">
      <path id="Path_28" data-name="Path 28" d="M5494.987,207.978c-.169-1.561-2.5-4.489-4.289-4.489a1.721,1.721,0,0,0-.594.1c-1.392.509-1.449,2.3-1.5,4.026a6.329,6.329,0,0,1-.309,2.319c-.606.737-2.271,1.457-3.741,2.092a13.565,13.565,0,0,0-3.987,2.218c-.717.718-1.469,1.521-2.2,2.3-.375.4-.434.5-.805.895h0l-.022.025v0a.916.916,0,0,0,1.339,1.249h0c.685-.787-.019,0,.833-.915.749-.8,1.457-1.557,2.152-2.253a13.036,13.036,0,0,1,3.415-1.83c1.822-.788,3.543-1.532,4.432-2.612.642-.781.684-2.068.728-3.43a7.033,7.033,0,0,1,.3-2.344c.673.084,2.324,2.012,2.415,2.844.1.885-.7,2.478-1.4,3.884-.914,1.83-1.776,3.559-1.585,5.009a2.226,2.226,0,0,0,1.02,1.36c.1.08.242.191.33.272-.114.977-1.987,2.426-3.373,3.5a12.457,12.457,0,0,0-3.306,3.183c-.5.93.119,1.978.72,2.992a5.57,5.57,0,0,1,.543,1.053c.271,1.463-.679,4.786-1.441,6.18a28.272,28.272,0,0,1-3.714,4.525c-2.337,2.526-4.752,5.139-5.335,7.462-.451,1.8.689,4.366,1.9,7.085,1.029,2.316,2.438,5.488,1.469,5.994a.4.4,0,0,1-.179.054c-.877,0-2.291-3.253-3.135-5.2-1.158-2.664-2.251-5.181-3.73-6.132a1.2,1.2,0,0,0-.652-.194,1.708,1.708,0,0,0-1.1.513,1.388,1.388,0,0,1-.928.442,1.565,1.565,0,0,1-.343-.042c-.317-.071-.645-.147-.979-.225a24.594,24.594,0,0,0-5.135-.83,3.712,3.712,0,0,0-3.24,1.292,2.5,2.5,0,0,0-.036,2.175c.048.171.117.422.15.6a1.055,1.055,0,0,1-.178.014,10.176,10.176,0,0,1-2.982-.953,10.457,10.457,0,0,0-3.616-1.078,2.68,2.68,0,0,0-.581.061c-4.186.934-6.782,2.287-7.94,4.135a5.607,5.607,0,0,0-.4,4.556c.054.228.122.516.148.712-.136.013-.27.019-.4.019-2.023,0-2.8-1.612-3.893-4.243s-2.451-5.89-6.428-5.926c-.931,0-1.339.914-1.638,1.582-.071.16-.181.406-.264.546h0c-.461,0-.969-.984-1.508-2.025-1.145-2.214-2.876-5.56-7.527-6.072-.42-.047-.933-.06-1.526-.075a14.679,14.679,0,0,1-3.6-.384,26.046,26.046,0,0,1-4.447-2.024,32.6,32.6,0,0,0-3.889-1.851,9.979,9.979,0,0,0-2.5-.519,3.9,3.9,0,0,1-1.722-.424,4.273,4.273,0,0,1-.94-1.358,10.868,10.868,0,0,0-1.3-1.995,9.685,9.685,0,0,0-1.729-1.454,4.9,4.9,0,0,1-1.155-.981,22.1,22.1,0,0,1-1.188-5.77c-.1-.774-.2-1.574-.319-2.371a9.121,9.121,0,0,0-.7-2.169,8.091,8.091,0,0,1-.512-1.449,7.216,7.216,0,0,1,.008-2.223c.042-.381.082-.74.086-1.1.019-1.365,1.273-3.836,2.485-6.225a50.791,50.791,0,0,0,2.418-5.228,15.584,15.584,0,0,0,.814-4.088,7.545,7.545,0,0,1,.2-1.376,2.882,2.882,0,0,1,.47.4,2.493,2.493,0,0,0,1.714.89,1.809,1.809,0,0,0,.431-.053c1.36-.333,1.135-1.681,1.061-2.124-.009-.052-.02-.114-.028-.174a3.544,3.544,0,0,1,.845-.1,17.762,17.762,0,0,1,5.393,1.519,60.615,60.615,0,0,0,13.208,3.662.914.914,0,0,0,.252.04c.035.005.076.011.006,0a.921.921,0,0,0,.081-1.84,57.348,57.348,0,0,1-12.9-3.585c-2.421-.916-4.333-1.639-6.044-1.639a5.232,5.232,0,0,0-1.659.256,1.571,1.571,0,0,0-1.015,1.885l-.073-.069a2.481,2.481,0,0,0-1.973-.913c-1.538.148-1.682,1.69-1.809,3.05a13.758,13.758,0,0,1-.708,3.626,49.657,49.657,0,0,1-2.331,5.029c-1.368,2.7-2.66,5.242-2.685,7.034,0,.267-.038.584-.075.92a8.919,8.919,0,0,0,.017,2.781,9.481,9.481,0,0,0,.622,1.805,7.687,7.687,0,0,1,.579,1.726c.116.777.217,1.567.313,2.331a22.98,22.98,0,0,0,1.348,6.32,5.038,5.038,0,0,0,1.752,1.7,8.2,8.2,0,0,1,1.4,1.158,9.161,9.161,0,0,1,1.071,1.671,4.1,4.1,0,0,0,4.076,2.734,8.338,8.338,0,0,1,2.063.415,30.777,30.777,0,0,1,3.667,1.751,27.77,27.77,0,0,0,4.763,2.156,15.968,15.968,0,0,0,4.1.467c.529.014,1.029.027,1.373.064,3.67.4,4.957,2.892,6.093,5.088.8,1.554,1.562,3.021,3.144,3.021a2.529,2.529,0,0,0,.583-.071c.747-.177,1.077-.914,1.368-1.565.062-.138.152-.342.229-.482,2.357.148,3.267,1.925,4.457,4.782,1.048,2.52,2.237,5.377,5.592,5.377a6.2,6.2,0,0,0,.643-.034,1.746,1.746,0,0,0,1.314-.684,2.71,2.71,0,0,0,.084-2.278,3.9,3.9,0,0,1,.166-3.156c.871-1.39,3.152-2.5,6.78-3.315a.85.85,0,0,1,.18-.017,10.068,10.068,0,0,1,2.9.934,10.614,10.614,0,0,0,3.695,1.1,2.184,2.184,0,0,0,1.66-.651c.6-.639.348-1.559.143-2.3a5.728,5.728,0,0,1-.165-.7,2.384,2.384,0,0,1,1.666-.437,23.42,23.42,0,0,1,4.717.782c.34.079.673.156,1,.229a3.424,3.424,0,0,0,.745.086,3.039,3.039,0,0,0,2.01-.788c.913.905,1.865,3.1,2.715,5.052,1.469,3.383,2.739,6.3,4.824,6.3a2.214,2.214,0,0,0,1.031-.263c2.5-1.306.9-4.9-.638-8.373-.979-2.206-2.09-4.706-1.792-5.889.469-1.867,2.823-4.413,4.9-6.66a29.055,29.055,0,0,0,3.977-4.892c.894-1.634,2-5.419,1.637-7.4a5.564,5.564,0,0,0-.77-1.657,6.339,6.339,0,0,1-.637-1.261,13.109,13.109,0,0,1,2.766-2.519c2.081-1.61,4.234-3.276,4.086-5.238a2.176,2.176,0,0,0-1.03-1.435c-.107-.085-.259-.2-.344-.286-.032-.913.736-2.451,1.417-3.815C5494.3,211.092,5495.143,209.4,5494.987,207.978Z" transform="translate(-5395.006 -198.399)" fill="#13294b"/>
      <path id="Path_29" data-name="Path 29" d="M5539.65,221.234l-.027.161a.658.658,0,0,0,.955.694l.145-.076.145.076a.658.658,0,0,0,.955-.694l-.028-.161.117-.114a.658.658,0,0,0-.364-1.122l-.162-.023-.073-.147a.658.658,0,0,0-1.18,0l-.073.147-.162.023a.658.658,0,0,0-.364,1.122Z" transform="translate(-5501.37 -213.918)" fill="#13294b"/>
      <path id="Path_30" data-name="Path 30" d="M5554.567,221.234l-.027.161a.658.658,0,0,0,.955.694l.145-.076.145.076a.658.658,0,0,0,.955-.694l-.028-.161.117-.114a.658.658,0,0,0-.365-1.122l-.162-.023-.073-.147a.658.658,0,0,0-1.18,0l-.073.147-.162.023a.658.658,0,0,0-.365,1.122Z" transform="translate(-5512.363 -213.918)" fill="#13294b"/>
      <path id="Path_31" data-name="Path 31" d="M5548.1,234.108l-.028-.162.118-.114a.658.658,0,0,0-.365-1.122l-.163-.023-.073-.147a.658.658,0,0,0-.589-.367h0a.659.659,0,0,0-.59.367l-.072.147-.162.023a.658.658,0,0,0-.365,1.122l.118.114-.028.161a.658.658,0,0,0,.955.694l.145-.076.145.076a.658.658,0,0,0,.955-.694Z" transform="translate(-5505.999 -223.285)" fill="#13294b"/>
      <path id="Path_114" data-name="Path 114" d="M5430.841,197.067a30.335,30.335,0,0,1,10.511-1.19,63,63,0,0,1,10.37,1.555c2.712.678,7.859,1.856,11.043,1.835s7.5.013,9.592-.71a14.7,14.7,0,0,0,2.713-1.125v5a5.569,5.569,0,0,1-3.729,1.444c-2.5.112-9.518.523-12.384,0s-8.312-1.76-10.843-2.22a39.68,39.68,0,0,0-9.586-.808c-3.252.26-8.034,1.6-8.473,1.584S5430.841,197.067,5430.841,197.067Z" transform="translate(-5395.006 -173.039)" fill="#ea5555"/>
      <path id="Path_32" data-name="Path 32" d="M5562.259,232.687l-.163.023a.658.658,0,0,0-.364,1.122l.117.114-.027.161a.658.658,0,0,0,.954.694l.146-.076.146.076a.658.658,0,0,0,.954-.694l-.028-.161.117-.114a.658.658,0,0,0-.364-1.122l-.162-.023-.072-.147a.658.658,0,0,0-1.18,0Z" transform="translate(-5517.729 -223.285)" fill="#13294b"/>
      <path id="Path_113" data-name="Path 113" d="M5447.351,176.864c3.912.694,12.4,2.842,16.633,2.629s9.521-1.048,10.315-1.546.369,4.333.369,4.333,1.843,1.027-3.076,1.583a58.291,58.291,0,0,1-13.616-.45c-2.409-.407-6.9-1.211-8.547-1.615a7.554,7.554,0,0,0-2.609-.264Z" transform="translate(-5395.006 -163.039)" fill="#f74c4c"/>
      <path id="Path_144" data-name="Path 144" d="M5447.351,176.864c3.912.694,12.4,2.842,16.633,2.629s9.521-1.048,10.315-1.546.369,4.333.369,4.333,1.843,1.027-3.076,1.583a58.291,58.291,0,0,1-13.616-.45c-2.409-.407-6.9-1.211-8.547-1.615a7.554,7.554,0,0,0-2.609-.264Z" transform="translate(-5395.006 -168.617)" fill="#fff"/>
      <path id="Path_145" data-name="Path 145" d="M5430.841,197.067a30.335,30.335,0,0,1,10.511-1.19,63,63,0,0,1,10.37,1.555c2.712.678,7.859,1.856,11.043,1.835s7.5.013,9.592-.71a14.7,14.7,0,0,0,2.713-1.125v5a5.569,5.569,0,0,1-3.729,1.444c-2.5.112-9.518.523-12.384,0s-8.312-1.76-10.843-2.22a39.68,39.68,0,0,0-9.586-.808c-3.252.26-8.034,1.6-8.473,1.584S5430.841,197.067,5430.841,197.067Z" transform="translate(-5395.006 -178.365)" fill="#fff"/>
      <path id="Path_33" data-name="Path 33" d="M5569.483,221.234l-.027.161a.658.658,0,0,0,.955.694l.145-.076.145.076a.658.658,0,0,0,.955-.694l-.028-.161.117-.114a.658.658,0,0,0-.365-1.122l-.162-.023-.073-.147a.657.657,0,0,0-1.179,0l-.073.147-.162.023a.658.658,0,0,0-.364,1.122Z" transform="translate(-5523.355 -213.918)" fill="#13294b"/>
      <path id="Path_34" data-name="Path 34" d="M5541.547,246.423l-.162-.023-.073-.147a.658.658,0,0,0-1.18,0l-.073.147-.162.023a.658.658,0,0,0-.364,1.122l.117.114-.027.162a.658.658,0,0,0,.954.693l.146-.076.145.076a.658.658,0,0,0,.955-.693l-.028-.162.117-.114a.658.658,0,0,0-.364-1.122Z" transform="translate(-5501.37 -233.397)" fill="#13294b"/>
      <path id="Path_35" data-name="Path 35" d="M5556.994,246.871a.657.657,0,0,0-.531-.448l-.162-.023-.073-.147a.658.658,0,0,0-1.18,0l-.073.147-.162.023a.658.658,0,0,0-.365,1.122l.117.114-.027.162a.657.657,0,0,0,.954.693l.146-.076.145.076a.652.652,0,0,0,.305.076.658.658,0,0,0,.649-.769l-.028-.162.117-.114A.658.658,0,0,0,5556.994,246.871Z" transform="translate(-5512.363 -233.397)" fill="#13294b"/>
      <path id="Path_36" data-name="Path 36" d="M5571.379,246.423l-.162-.023-.073-.147a.657.657,0,0,0-1.179,0l-.073.147-.162.023a.658.658,0,0,0-.364,1.122l.117.114-.027.162a.658.658,0,0,0,.955.693l.145-.076.145.076a.658.658,0,0,0,.955-.693l-.028-.161.117-.114a.658.658,0,0,0-.365-1.122Z" transform="translate(-5523.355 -233.397)" fill="#13294b"/>
      <path id="Path_112" data-name="Path 112" d="M5447.351,176.864c3.912.694,12.4,2.842,16.633,2.629s9.521-1.048,10.315-1.546.369,4.333.369,4.333,1.843,1.027-3.076,1.583a58.291,58.291,0,0,1-13.616-.45c-2.409-.407-6.9-1.211-8.547-1.615a7.554,7.554,0,0,0-2.609-.264Z" transform="translate(-5395.006 -173.039)" fill="#f74c4c"/>
      <path id="Path_37" data-name="Path 37" d="M5571.06,207.119h-.006a.912.912,0,0,0-.11-.442.923.923,0,0,0-1.249-.365c-.065.036-6.789,3.545-22.6-.091-14.534-3.34-21.991-.194-22.532.049h0l-.025.011c-.02.009-.036.022-.054.032a.952.952,0,0,0-.091.053c-.024.017-.046.037-.068.056s-.046.038-.067.06a.894.894,0,0,0-.058.07c-.018.023-.037.046-.052.07a.816.816,0,0,0-.042.076c-.014.027-.028.054-.04.082a.733.733,0,0,0-.026.085.86.86,0,0,0-.023.086c-.006.035-.008.07-.01.105s-.006.041-.006.062v34.233a.921.921,0,0,0,1.842,0v-8.4c1.912-.648,8.908-2.482,20.841.261a61.6,61.6,0,0,0,13.739,1.733c6.859,0,9.971-1.625,10.162-1.729a.919.919,0,0,0,.44-1.073h.041Zm-1.842,9.456c-1.778.708-8.649,2.8-22.128-.3-1.642-.378-3.187-.666-4.647-.891v-3.013c1.335.211,2.743.478,4.235.821a60.84,60.84,0,0,0,13.569,1.709,28.056,28.056,0,0,0,8.971-1.234Zm-26.775.673c1.335.211,2.743.479,4.235.822a60.841,60.841,0,0,0,13.569,1.709,28.064,28.064,0,0,0,8.971-1.234v3.311c-1.778.708-8.649,2.8-22.128-.3-1.641-.377-3.187-.669-4.647-.894Zm17.8-7.522a28.063,28.063,0,0,0,8.971-1.234V211.7c-1.778.708-8.649,2.8-22.128-.3-1.642-.378-3.187-.666-4.647-.891v-3.315c1.334.212,2.745.483,4.235.825A60.843,60.843,0,0,0,5560.247,209.725Zm-34.41-1.973c1.551-.533,6.476-1.857,14.764-.822v13.476c-7.672-.932-12.582.083-14.764.742Zm0,15.337c1.912-.648,8.908-2.482,20.841.261a60.843,60.843,0,0,0,13.569,1.709,28.062,28.062,0,0,0,8.971-1.234V226.8c-1.793.692-8.667,2.707-22.128-.387-11.451-2.632-18.508-1.236-21.253-.406Zm21.253,8.325c-11.451-2.632-18.508-1.236-21.253-.407v-3.059c1.912-.648,8.908-2.482,20.841.261a61.618,61.618,0,0,0,13.739,1.733,28.233,28.233,0,0,0,8.8-1.179V231.8C5567.425,232.493,5560.551,234.508,5547.09,231.415Z" transform="translate(-5490.077 -203.038)" fill="#13294b"/>
      <path id="Path_111" data-name="Path 111" d="M5571.06,207.119h-.006a.912.912,0,0,0-.11-.442.923.923,0,0,0-1.249-.365c-.065.036-6.789,3.545-22.6-.091-14.534-3.34-21.991-.194-22.532.049h0l-.025.011c-.02.009-.036.022-.054.032a.952.952,0,0,0-.091.053c-.024.017-.046.037-.068.056s-.046.038-.067.06a.894.894,0,0,0-.058.07c-.018.023-.037.046-.052.07a.816.816,0,0,0-.042.076c-.014.027-.028.054-.04.082a.733.733,0,0,0-.026.085.86.86,0,0,0-.023.086c-.006.035-.008.07-.01.105s-.006.041-.006.062v34.233a.921.921,0,0,0,1.842,0v-8.4c1.912-.648,8.908-2.482,20.841.261a61.6,61.6,0,0,0,13.739,1.733c6.859,0,9.971-1.625,10.162-1.729a.919.919,0,0,0,.44-1.073h.041Zm-1.842,9.456c-1.778.708-8.649,2.8-22.128-.3-1.642-.378-3.187-.666-4.647-.891v-3.013c1.335.211,2.743.478,4.235.821a60.84,60.84,0,0,0,13.569,1.709,28.056,28.056,0,0,0,8.971-1.234Zm-26.775.673c1.335.211,2.743.479,4.235.822a60.841,60.841,0,0,0,13.569,1.709,28.064,28.064,0,0,0,8.971-1.234v3.311c-1.778.708-8.649,2.8-22.128-.3-1.641-.377-3.187-.669-4.647-.894Zm17.8-7.522a28.063,28.063,0,0,0,8.971-1.234V211.7c-1.778.708-8.649,2.8-22.128-.3-1.642-.378-3.187-.666-4.647-.891v-3.315c1.334.212,2.745.483,4.235.825A60.843,60.843,0,0,0,5560.247,209.725Zm-34.41-1.973c1.551-.533,6.476-1.857,14.764-.822v13.476c-7.672-.932-12.582.083-14.764.742Zm0,15.337c1.912-.648,8.908-2.482,20.841.261a60.843,60.843,0,0,0,13.569,1.709,28.062,28.062,0,0,0,8.971-1.234V226.8c-1.793.692-8.667,2.707-22.128-.387-11.451-2.632-18.508-1.236-21.253-.406Zm21.253,8.325c-11.451-2.632-18.508-1.236-21.253-.407v-3.059c1.912-.648,8.908-2.482,20.841.261a61.618,61.618,0,0,0,13.739,1.733,28.233,28.233,0,0,0,8.8-1.179V231.8C5567.425,232.493,5560.551,234.508,5547.09,231.415Z" transform="translate(-5490.077 -203.038)" fill="#13294b"/>
    </g>
  </g>
</svg>
