<svg xmlns="http://www.w3.org/2000/svg" width="70.919" height="64.943" viewBox="0 0 70.919 64.943">
  <g id="Group_56" data-name="Group 56" transform="matrix(-0.94, 0.342, -0.342, -0.94, 70.919, 45.106)">
    <path id="Path_94" data-name="Path 94" d="M54.827,39c-5.868,7.722-17.137,9.1-26.136,9a57.528,57.528,0,0,1-16.233-2.37c-4.129-1.275-8.333-3.393-10.678-7.183-2.72-4.4-1.96-9.9-.128-14.473C3.459,19.453,6.874,15.9,10.262,12.5c.712-.714,1.43-1.423,2.143-2.136A39.568,39.568,0,0,1,16.147.53a1.107,1.107,0,0,1,2,.261,56.961,56.961,0,0,0,3.281,8.22c9.932-2.229,20.921-1.8,29.111,4.9a20.05,20.05,0,0,1,7.134,11.7A16.951,16.951,0,0,1,54.827,39ZM51.174,17.507c-6.589-7.123-16.9-8.519-26.054-7-1.024.17-2.041.374-3.053.6a1.07,1.07,0,0,1-1.937.173A60.311,60.311,0,0,1,16.9,3.929a37.609,37.609,0,0,0-2.452,7.323.954.954,0,0,1-.517.688c-3.011,3.011-6.219,5.964-8.56,9.547a20.6,20.6,0,0,0-2.634,6.176,14.1,14.1,0,0,0-.241,6.873c1,4.032,4.429,6.605,8.108,8.114A46.969,46.969,0,0,0,24.8,45.64a55.361,55.361,0,0,0,14.937-.766c3.927-.787,7.945-2.155,11.047-4.776A14.127,14.127,0,0,0,55.827,29.2,17.228,17.228,0,0,0,51.174,17.507Z" transform="translate(0 0)" fill="orange"/>
    <path id="Path_95" data-name="Path 95" d="M11.225,13.123a6.923,6.923,0,0,1-3.614-2.6A4.985,4.985,0,0,1,5.136,13.6,3.415,3.415,0,0,1,.21,11.717C-.425,9.7.5,7.481,1.4,5.7A17.951,17.951,0,0,1,5.653.282,1.126,1.126,0,0,1,7.219.36a1.209,1.209,0,0,1,.259.111,46.044,46.044,0,0,1,6.464,4.494c1.651,1.37,3.538,3.237,2.7,5.595A4.421,4.421,0,0,1,11.225,13.123Zm3.429-3.841a3.14,3.14,0,0,0-1.163-1.815c-.666-.633-1.393-1.213-2.118-1.775A43.489,43.489,0,0,0,6.525,2.45,16,16,0,0,0,3.866,5.764a9.972,9.972,0,0,0-1.659,4.323,1.815,1.815,0,0,0,.47,1.566,1.446,1.446,0,0,0,1.53-.031c1.46-.755,1.649-2.8,1.861-4.237a1.105,1.105,0,0,1,2-.262c.782,1.5,1.742,3.155,3.412,3.785C12.665,11.353,14.8,10.959,14.654,9.282Z" transform="translate(19.47 20.99)" fill="orange"/>
  </g>
</svg>
