<svg xmlns="http://www.w3.org/2000/svg" width="75.854" height="61.276" viewBox="0 0 75.854 61.276">
  <path id="Path_134" data-name="Path 134" d="M3570.438,460.046a7.816,7.816,0,0,0-2.721-5.493,6.853,6.853,0,0,0-6.743-.893,11.814,11.814,0,0,0-6.077,6.111l-.009.02a174.671,174.671,0,0,1-24.868-11.43q-3.066-1.713-6.058-3.549a12.1,12.1,0,0,0,1.242-7.394,7.176,7.176,0,0,0-4.137-5.367,7.475,7.475,0,0,0-6.1.428,8.239,8.239,0,0,0-4.121,5.048,11.55,11.55,0,0,0,.2,6.863,9.741,9.741,0,0,0-6.069.734c-2.231,1.236-2.942,3.565-2.605,5.986.3,2.131,1.121,4.428,3,5.654,2.014,1.314,4.583.837,6.654-.064a19.117,19.117,0,0,0,6.173-4.459c8.685,5.382,17.539,10.8,27.446,13.6,2.394.678,4.946,1.241,6.988,2.729a20.062,20.062,0,0,0,.089,7.16,8.022,8.022,0,0,0,3.068,5.249c2.07,1.367,4.666.783,6.749-.227,2.1-1.017,3.848-2.74,3.821-5.217-.027-2.444-1.505-4.372-3.134-6.052C3567.207,468.051,3570.781,464.546,3570.438,460.046Zm-8.813,8.377a.749.749,0,0,0-.328,1.241c1.749,1.706,4.017,3.905,3.517,6.615-.441,2.389-3.6,3.845-5.78,4.015-2.515.2-3.983-1.739-4.632-3.935a17.089,17.089,0,0,1-.316-7.533.634.634,0,0,0,.138-.838.8.8,0,0,0-.951-.756,18.676,18.676,0,0,0-5.483-2.331c-2.471-.7-4.918-1.427-7.315-2.361a99.146,99.146,0,0,1-14.1-7.065c-2.57-1.508-5.1-3.077-7.638-4.647a.681.681,0,0,0-1.126-.148,18.369,18.369,0,0,1-6.121,4.639c-2.17.976-4.967,1.3-6.461-.953-1.2-1.815-2-5.161-.492-7.006,1.769-2.158,5-1.718,7.42-1.357a.755.755,0,0,0,.839-1.091c-1.489-3.5-1.323-8.4,2.136-10.7a6.359,6.359,0,0,1,4.815-1.027,5.359,5.359,0,0,1,3.831,3.847,10.127,10.127,0,0,1-.985,7.207.767.767,0,0,0-.177,1.366,177.055,177.055,0,0,0,24.9,12.8q3.732,1.56,7.534,2.946a4.422,4.422,0,0,0,1.329-.836,11.338,11.338,0,0,1,4.191-4.942,5.81,5.81,0,0,1,5.99-.185,6.094,6.094,0,0,1,2.563,4.366,6.875,6.875,0,0,1-1.6,5.215A10.684,10.684,0,0,1,3561.625,468.423Z" transform="matrix(0.985, -0.174, 0.174, 0.985, -3524.025, 194.975)" fill="#38b6ff"/>
</svg>
