<svg xmlns="http://www.w3.org/2000/svg" width="76.005" height="69.206" viewBox="0 0 76.005 69.206">
  <g id="Group_70" data-name="Group 70" transform="translate(-1209.088 -327.953)">
    <path id="Path_137" data-name="Path 137" d="M1283.169,344.89c-2.173-5.9-6.111-11.162-11.8-14.038-5.844-2.953-12.639-3.319-19.04-2.556a72.058,72.058,0,0,0-18.723,5,47.82,47.82,0,0,0-16.72,11.559c-4.412,4.756-8.02,10.915-7.785,17.6.241,6.856,4.473,12.47,9.843,16.366a36.933,36.933,0,0,0,9.449,4.951,24.4,24.4,0,0,0,9.944,1.518,15.03,15.03,0,0,0,4.116-.9c1.828,3.986,3.142,8.181,4.666,12.287.211.568,1.161.713,1.3,0,.941-4.692.73-9.708,2.419-14.232a12.836,12.836,0,0,0,3.923-.715c1.675-.487,3.313-1.091,4.988-1.581,1.927-.563,3.885-1,5.8-1.6a56.107,56.107,0,0,0,6.118-2.264,22.61,22.61,0,0,0,8.31-5.813,20.884,20.884,0,0,0,4.1-7.7A28.948,28.948,0,0,0,1283.169,344.89Zm.414,13.432a19.685,19.685,0,0,1-8.019,14.331,38.941,38.941,0,0,1-10.943,4.768c-1.81.544-3.659.949-5.467,1.493-1.561.47-3.1,1.026-4.66,1.484a10.515,10.515,0,0,1-4.1.66.532.532,0,0,0-.628.446c-.008.016-.017.033-.024.05-1.593,3.878-1.676,8.146-2.221,12.278-1.268-3.556-2.489-7.13-4.1-10.551a.549.549,0,0,0-.624-.337.577.577,0,0,0-.409.027c-6.014,2.457-13.113.239-18.551-2.679-5.616-3.014-10.887-7.529-12.736-13.846-1.817-6.208.451-12.488,4.147-17.522a44.52,44.52,0,0,1,15.175-12.657,55.809,55.809,0,0,1,8.291-3.418,75.93,75.93,0,0,1,9.017-2.449c6.113-1.243,12.641-1.7,18.715,0a21.969,21.969,0,0,1,8.089,4.119,23.571,23.571,0,0,1,5.635,7A29.22,29.22,0,0,1,1283.583,358.321Z" fill="#212120"/>
    <path id="Path_138" data-name="Path 138" d="M1293.065,532.41l-2.858-8.7c-.271-.823-1.577-.47-1.3.359l2.154,6.555,1.077,3.277a27.894,27.894,0,0,1,.974,3.133c.164.814.14,1.967-.691,2.439s-1.809-.271-2.37-.842a15.545,15.545,0,0,1-2.913-5.064,61.782,61.782,0,0,0-2.568-5.958c-.424-.787-1.5-.094-1.167.682a40.055,40.055,0,0,1,3.149,12.669c.022.314.1.843-.258.99-.322.132-.81-.16-1.061-.337a6.779,6.779,0,0,1-1.814-2.259,30.87,30.87,0,0,1-2.324-5.846c-.758-2.406-1.37-4.854-1.981-7.3a.677.677,0,0,0-1.3.36c.642,2.57,1.285,5.143,2.1,7.666a25.428,25.428,0,0,0,2.875,6.659c.872,1.266,3.173,3.626,4.7,1.822.7-.829.4-2.13.284-3.1q-.132-1.118-.32-2.229a9.257,9.257,0,0,0,2.116,2.631,3.5,3.5,0,0,0,2.653.925,2.653,2.653,0,0,0,2.043-1.658,4.727,4.727,0,0,0,.012-3.179C1293.913,534.859,1293.469,533.637,1293.065,532.41Z" transform="translate(-59.406 -168.884)" fill="#212120"/>
    <path id="Path_139" data-name="Path 139" d="M1401.327,495.89a2.656,2.656,0,0,0-2.375.609c-1.708,1.4-2.02,4.337-2.067,6.382a18.018,18.018,0,0,0,.64,5.027,15.1,15.1,0,0,0,1.813,4.444,5.032,5.032,0,0,0,3.575,2.4,3.554,3.554,0,0,0,3.508-1.858,12.463,12.463,0,0,0,1.08-9.545,12.6,12.6,0,0,0-2.575-4.742C1404.007,497.535,1402.724,496.208,1401.327,495.89ZM1406.176,510c-.31,1.077-.8,2.627-1.861,3.2-1.182.635-2.6-.075-3.4-.986a9.755,9.755,0,0,1-1.705-3.395,18.4,18.4,0,0,1-.909-4.149,13.477,13.477,0,0,1,.33-4.645c.287-1.1.873-2.91,2.283-2.862a.707.707,0,0,0,.208-.023A11.4,11.4,0,0,1,1406.176,510Z" transform="translate(-162.401 -145.168)" fill="#212120"/>
    <path id="Path_140" data-name="Path 140" d="M1483.637,481.739a.725.725,0,0,0-.263,0,1.412,1.412,0,0,0-1.675.049,3.089,3.089,0,0,0-.944,1.833,18.445,18.445,0,0,0-.6,4.934,15.864,15.864,0,0,0,2.666,9.089,5.249,5.249,0,0,0,3.408,2.281,2.785,2.785,0,0,0,2.986-2.036,16.28,16.28,0,0,0,.17-9.945C1488.564,485.17,1486.671,482.295,1483.637,481.739Zm4.939,12.854a7.5,7.5,0,0,1-1.01,3.551c-.782.977-2.193.209-2.905-.453-1.764-1.637-2.543-4.268-2.932-6.569a17.29,17.29,0,0,1-.159-4.369,16.28,16.28,0,0,1,.346-2.192c.052-.228.378-1.952.779-1.654a.555.555,0,0,0,.489.111.788.788,0,0,0,.093.024,6.234,6.234,0,0,1,4.33,3.96A14.687,14.687,0,0,1,1488.576,494.593Z" transform="translate(-234.41 -132.772)" fill="#212120"/>
    <path id="Path_141" data-name="Path 141" d="M1536.1,410.795c-.764-2.36-1.57-4.714-2.21-7.113l2.663-1.194c.792-.356.106-1.521-.682-1.168l-2.32,1.041a16.168,16.168,0,0,1-.591-6.768,3.711,3.711,0,0,1,1.552-2.555,2.293,2.293,0,0,1,2.566-.083c.676.533,1.639-.418.956-.956a3.685,3.685,0,0,0-4.5.072c-1.6,1.168-2.063,3.234-2.055,5.116a24.933,24.933,0,0,0,.777,5.756l-1.51.677c-.793.356-.106,1.521.682,1.168l1.17-.525c.623,2.252,1.412,4.469,2.114,6.637l2.652,8.19c.267.824,1.573.472,1.3-.359Z" transform="translate(-277.863 -54.752)" fill="#212120"/>
    <path id="Path_142" data-name="Path 142" d="M1624.806,404.413l-5.264-21.75c-.2-.845-1.509-.487-1.3.359l5.263,21.75C1623.707,405.617,1625.011,405.259,1624.806,404.413Z" transform="translate(-353.809 -46.895)" fill="#212120"/>
    <path id="Path_143" data-name="Path 143" d="M1656.909,559.405a.614.614,0,0,0-.311-.377,1.6,1.6,0,0,0-1.054-.2,1.669,1.669,0,0,0-1.633,2.248,1.924,1.924,0,0,0,.027.205,1.912,1.912,0,1,0,2.971-1.881Z" transform="translate(-384.561 -199.643)" fill="#212120"/>
  </g>
</svg>
