<svg xmlns="http://www.w3.org/2000/svg" width="68.205" height="55.493" viewBox="0 0 68.205 55.493">
  <g id="Group_148" data-name="Group 148" transform="translate(-113.21 -6276.682)">
    <g id="Group_87" data-name="Group 87" transform="translate(113.21 6276.682)">
      <path id="Path_163" data-name="Path 163" d="M5895.1,510.869a2.817,2.817,0,0,1,.851-.853,6.555,6.555,0,0,1,1.6-.656c2.432-.748,4.775-.9,6.678,1.07a6.1,6.1,0,0,1,2.166,4.849c0,.006,0,.011,0,.017a97.609,97.609,0,0,0,17.685.359c1.746-.122,3.489-.4,5.229-.595.008-1.9.368-2.492,1.514-4.056a5.365,5.365,0,0,1,4.508-2.314c4.817.266,6.947,7.156,3.816,10.521.6-.649,3.026,3.626,3.2,4.095a4.44,4.44,0,0,1-.436,4.11c-1.629,2.5-5.258,4.178-7.949,2.223a8.618,8.618,0,0,1-2.985-3.578.523.523,0,0,0-.182-.29.489.489,0,0,0-.312-.031,95.215,95.215,0,0,1-12.487.749c-2.148-.025-4.3-.141-6.433-.36a46.26,46.26,0,0,0-5.967-.6.642.642,0,0,0-.374.089.672.672,0,0,0-.195.353,6.68,6.68,0,0,1-2.732,3.553c-3.456,2.214-8.555.44-8.994-3.958a4.962,4.962,0,0,1,.645-2.784,6.532,6.532,0,0,1,3.047-3.213c-.854.323-2.443-4.141-2.539-4.72A5.95,5.95,0,0,1,5895.1,510.869Zm3.313,8.485a.56.56,0,0,1-.173.944,6.223,6.223,0,0,0-3.81,4.213c-.579,2.2,1.887,4.708,3.941,4.98a4.725,4.725,0,0,0,3.439-1.1,7.014,7.014,0,0,0,1.626-1.81c.346-.555.5-1.326,1.025-1.747a2.946,2.946,0,0,1,1.877-.534,20.4,20.4,0,0,1,3.23.375c1.9.312,3.782.6,5.7.732a43.322,43.322,0,0,0,9.009-.116c2.219-.2,4.433-.456,6.647-.712,1.082-.125,1.711,2.16,2.427,3.052a4.9,4.9,0,0,0,2.547,1.831,4.7,4.7,0,0,0,4.082-1.368,5.074,5.074,0,0,0,1.552-2.291,4.241,4.241,0,0,0-.524-3.323,6.249,6.249,0,0,0-2.564-2.259,2.2,2.2,0,0,1-.675-.435c-.571-.631,1.188-1.929,1.5-2.628a5,5,0,0,0,.2-3.6c-.625-1.939-2.44-3.932-4.643-3.752a4.767,4.767,0,0,0-2.96,1.621,4.325,4.325,0,0,0-1.366,3.709,1.326,1.326,0,0,1,.056.465.727.727,0,0,1-.556.544c-2.657.705-5.977.583-8.732.7-3.1.129-6.209.072-9.312-.064h0q-2.373-.1-4.74-.3c-.608-.048-1.324.058-1.7-.421-.35-.443-.288-1.542-.426-2.088a5.456,5.456,0,0,0-8.4-3.15c-1.327.93-1.408,2.92-1.034,4.39A7.99,7.99,0,0,0,5898.418,519.354Z" transform="translate(-5893.288 -508.683)" fill="#13294b"/>
      <path id="Path_164" data-name="Path 164" d="M6026.223,595.59a1.258,1.258,0,0,1,.773-1.128.7.7,0,0,1,.163-.152,1.137,1.137,0,0,1,1.2-.117,1.194,1.194,0,0,1,.529.954,1.706,1.706,0,0,1-.774,1.681A1.429,1.429,0,0,1,6026.223,595.59Z" transform="translate(-5995.743 -583.65)" fill="#13294b"/>
      <path id="Path_165" data-name="Path 165" d="M6084.276,599.92a.515.515,0,0,1,.286-.4,1.367,1.367,0,0,1,1.2-.043,1.253,1.253,0,0,1,.606.748,1.348,1.348,0,0,1-.582,1.6,1.455,1.455,0,0,1-1.918-.81A1.061,1.061,0,0,1,6084.276,599.92Z" transform="translate(-6060.311 -588.289)" fill="#13294b"/>
      <path id="Path_166" data-name="Path 166" d="M6142.272,599.74a1.259,1.259,0,0,1,.773-1.128.705.705,0,0,1,.163-.152,1.138,1.138,0,0,1,1.2-.117,1.2,1.2,0,0,1,.529.954,1.706,1.706,0,0,1-.774,1.681A1.429,1.429,0,0,1,6142.272,599.74Z" transform="translate(-6125.953 -587.293)" fill="#13294b"/>
    </g>
    <g id="Group_88" data-name="Group 88" transform="translate(181.415 6316.099) rotate(161)">
      <path id="Path_163-2" data-name="Path 163" d="M1.816,19.624a2.817,2.817,0,0,0,.851.853,6.555,6.555,0,0,0,1.6.656c2.432.748,4.775.9,6.678-1.07a6.1,6.1,0,0,0,2.166-4.849c0-.006,0-.011,0-.017A97.609,97.609,0,0,1,30.8,14.838c1.746.122,3.489.4,5.229.595.008,1.9.368,2.492,1.514,4.056A5.365,5.365,0,0,0,42.046,21.8c4.817-.266,6.947-7.156,3.816-10.52.6.649,3.026-3.626,3.2-4.095a4.44,4.44,0,0,0-.436-4.11C47,.579,43.372-1.1,40.681.854A8.618,8.618,0,0,0,37.7,4.433a.523.523,0,0,1-.182.29.489.489,0,0,1-.312.031A95.215,95.215,0,0,0,24.714,4c-2.148.025-4.3.141-6.433.36a46.26,46.26,0,0,1-5.967.6.642.642,0,0,1-.374-.089.672.672,0,0,1-.195-.353A6.68,6.68,0,0,0,9.013.972C5.557-1.242.458.532.019,4.93A4.962,4.962,0,0,0,.664,7.714,6.532,6.532,0,0,0,3.71,10.927c-.854-.323-2.443,4.141-2.539,4.72A5.95,5.95,0,0,0,1.816,19.624ZM5.13,11.139a.56.56,0,0,0-.173-.944,6.223,6.223,0,0,1-3.81-4.213C.568,3.784,3.034,1.273,5.088,1A4.725,4.725,0,0,1,8.527,2.1a7.014,7.014,0,0,1,1.626,1.81c.346.555.5,1.326,1.025,1.747a2.946,2.946,0,0,0,1.877.534,20.4,20.4,0,0,0,3.23-.375c1.9-.312,3.782-.6,5.7-.732A43.322,43.322,0,0,1,31,5.2c2.219.2,4.433.456,6.647.712,1.082.125,1.711-2.16,2.427-3.052a4.9,4.9,0,0,1,2.547-1.831A4.7,4.7,0,0,1,46.7,2.4a5.074,5.074,0,0,1,1.552,2.291,4.241,4.241,0,0,1-.524,3.323,6.249,6.249,0,0,1-2.564,2.259,2.2,2.2,0,0,0-.675.435c-.571.631,1.188,1.929,1.5,2.628a5,5,0,0,1,.2,3.6c-.625,1.939-2.44,3.932-4.643,3.752a4.767,4.767,0,0,1-2.96-1.621,4.325,4.325,0,0,1-1.366-3.709,1.326,1.326,0,0,0,.056-.465.727.727,0,0,0-.556-.544c-2.657-.705-5.977-.583-8.732-.7-3.1-.129-6.209-.072-9.312.064h0q-2.373.1-4.74.3c-.608.048-1.324-.058-1.7.421-.35.443-.288,1.542-.426,2.088a5.576,5.576,0,0,1-3.857,3.928,5.548,5.548,0,0,1-4.538-.779c-1.327-.93-1.408-2.92-1.034-4.39A7.99,7.99,0,0,1,5.13,11.139Z" transform="translate(0 0)" fill="#13294b"/>
      <path id="Path_164-2" data-name="Path 164" d="M0,1.346A1.258,1.258,0,0,0,.773,2.473a.7.7,0,0,0,.163.152,1.137,1.137,0,0,0,1.2.117,1.194,1.194,0,0,0,.529-.954A1.706,1.706,0,0,0,1.893.108,1.429,1.429,0,0,0,0,1.346Z" transform="translate(30.48 8.524)" fill="#13294b"/>
      <path id="Path_165-2" data-name="Path 165" d="M.44,2.023a.515.515,0,0,0,.286.4,1.367,1.367,0,0,0,1.2.043,1.253,1.253,0,0,0,.606-.748,1.348,1.348,0,0,0-.582-1.6A1.455,1.455,0,0,0,.034.93,1.061,1.061,0,0,0,.44,2.023Z" transform="translate(23.525 8.156)" fill="#13294b"/>
      <path id="Path_166-2" data-name="Path 166" d="M0,1.345A1.259,1.259,0,0,0,.773,2.473a.705.705,0,0,0,.163.152,1.138,1.138,0,0,0,1.2.117,1.2,1.2,0,0,0,.529-.954A1.706,1.706,0,0,0,1.893.108,1.429,1.429,0,0,0,0,1.345Z" transform="translate(16.319 8.017)" fill="#13294b"/>
    </g>
  </g>
</svg>
