<svg xmlns="http://www.w3.org/2000/svg" width="32.843" height="20.842" viewBox="0 0 32.843 20.842">
  <path id="pets_favorite_arrow" data-name="pets favorite arrow" d="M1333.9,659.639l1.574,1.863a32.57,32.57,0,0,0-22.575-1.772,1.271,1.271,0,0,0-1,1.428,1.239,1.239,0,0,0,1.428,1,30.315,30.315,0,0,1,24.494,3.419,36.887,36.887,0,0,0-7,1.692,1.242,1.242,0,0,0-.6,1.634,1.258,1.258,0,0,0,1.634.6,33.119,33.119,0,0,1,9.333-1.805,1.251,1.251,0,0,0,1.055-2.01l-6.435-7.614C1334.775,656.862,1332.873,658.427,1333.9,659.639Z" transform="matrix(0.951, 0.309, -0.309, 0.951, -1040.757, -1030.843)" fill="#ffde59"/>
</svg>
