<svg xmlns="http://www.w3.org/2000/svg" width="21.333" height="20" viewBox="0 0 21.333 20">
  <path id="star" d="M21.333,7.75a.905.905,0,0,1-.334.6l-4.653,4.461,1.1,6.3a1.841,1.841,0,0,1,.013.252.734.734,0,0,1-.135.447.456.456,0,0,1-.392.183,1.048,1.048,0,0,1-.513-.151l-5.756-2.974L4.91,19.849A1.1,1.1,0,0,1,4.4,20a.469.469,0,0,1-.4-.183.737.737,0,0,1-.135-.447,2.026,2.026,0,0,1,.025-.252l1.1-6.3L.321,8.356A.954.954,0,0,1,0,7.75q0-.466.718-.58l6.436-.92L10.038.517Q10.282,0,10.666,0t.628.517l2.885,5.734,6.436.92q.718.114.718.58Z" fill="#ffd839"/>
</svg>
