<svg xmlns="http://www.w3.org/2000/svg" width="19" height="25" viewBox="0 0 19 25">
  <g id="where_to_buy_icon" data-name="where to buy icon" transform="translate(-7373.963 -615.591)">
    <path id="Path_156" data-name="Path 156" d="M7389.963,634.313c2.271.605,3.5,1.552,3.5,2.667,0,1.841-4.029,3.111-9,3.111s-9-1.27-9-3.111c0-1.091,1.314-2.059,3.5-2.667" transform="translate(-1)" fill="none" stroke="#13294b" stroke-linecap="round" stroke-linejoin="round" stroke-width="1"/>
    <path id="Path_157" data-name="Path 157" d="M7383.463,616.091a8,8,0,0,0-8,8c0,4.444,8,12.889,8,12.889a52.672,52.672,0,0,0,4.889-5.778l2.205-3.555a8.865,8.865,0,0,0,.906-3.556A8,8,0,0,0,7383.463,616.091Zm0,11.443a3.259,3.259,0,1,1,3.26-3.26A3.259,3.259,0,0,1,7383.463,627.534Z" fill="#f3f4f4" stroke="#13294b" stroke-linecap="round" stroke-linejoin="round" stroke-width="1"/>
  </g>
</svg>
